<?xml version="1.0" encoding="utf-8" standalone="no"?>
<!DOCTYPE svg PUBLIC "-//W3C//DTD SVG 1.1//EN"
  "http://www.w3.org/Graphics/SVG/1.1/DTD/svg11.dtd">
<svg xmlns:xlink="http://www.w3.org/1999/xlink" width="217.220313pt" height="170.754375pt" viewBox="0 0 217.220313 170.754375" xmlns="http://www.w3.org/2000/svg" version="1.1">
 <metadata>
  <rdf:RDF xmlns:dc="http://purl.org/dc/elements/1.1/" xmlns:cc="http://creativecommons.org/ns#" xmlns:rdf="http://www.w3.org/1999/02/22-rdf-syntax-ns#">
   <cc:Work>
    <dc:type rdf:resource="http://purl.org/dc/dcmitype/StillImage"/>
    <dc:date>2025-08-23T05:48:58.052587</dc:date>
    <dc:format>image/svg+xml</dc:format>
    <dc:creator>
     <cc:Agent>
      <dc:title>Matplotlib v3.10.5, https://matplotlib.org/</dc:title>
     </cc:Agent>
    </dc:creator>
   </cc:Work>
  </rdf:RDF>
 </metadata>
 <defs>
  <style type="text/css">*{stroke-linejoin: round; stroke-linecap: butt}</style>
 </defs>
 <g id="figure_1">
  <g id="patch_1">
   <path d="M 0 170.754375 
L 217.220313 170.754375 
L 217.220313 0 
L 0 0 
z
" style="fill: #ffffff"/>
  </g>
  <g id="axes_1">
   <g id="patch_2">
    <path d="M 42.620312 133.198125 
L 210.020313 133.198125 
L 210.020313 22.318125 
L 42.620312 22.318125 
z
" style="fill: #ffffff"/>
   </g>
   <g id="PathCollection_1">
    <defs>
     <path id="C0_0_d6e4bea80f" d="M 0 3 
C 0.795609 3 1.55874 2.683901 2.12132 2.12132 
C 2.683901 1.55874 3 0.795609 3 -0 
C 3 -0.795609 2.683901 -1.55874 2.12132 -2.12132 
C 1.55874 -2.683901 0.795609 -3 0 -3 
C -0.795609 -3 -1.55874 -2.683901 -2.12132 -2.12132 
C -2.683901 -1.55874 -3 -0.795609 -3 0 
C -3 0.795609 -2.683901 1.55874 -2.12132 2.12132 
C -1.55874 2.683901 -0.795609 3 0 3 
z
"/>
    </defs>
    <g clip-path="url(#pb078e7f9b9)">
     <use xlink:href="#C0_0_d6e4bea80f" x="76.372818" y="86.446308" style="fill: #1f77b4; stroke: #ffffff; stroke-width: 0.48"/>
    </g>
    <g clip-path="url(#pb078e7f9b9)">
     <use xlink:href="#C0_0_d6e4bea80f" x="133.111439" y="82.416163" style="fill: #ff7f0e; stroke: #ffffff; stroke-width: 0.48"/>
    </g>
    <g clip-path="url(#pb078e7f9b9)">
     <use xlink:href="#C0_0_d6e4bea80f" x="178.617968" y="52.295359" style="fill: #1f77b4; stroke: #ffffff; stroke-width: 0.48"/>
    </g>
    <g clip-path="url(#pb078e7f9b9)">
     <use xlink:href="#C0_0_d6e4bea80f" x="81.492916" y="86.657336" style="fill: #1f77b4; stroke: #ffffff; stroke-width: 0.48"/>
    </g>
    <g clip-path="url(#pb078e7f9b9)">
     <use xlink:href="#C0_0_d6e4bea80f" x="139.047976" y="76.940915" style="fill: #2ca02c; stroke: #ffffff; stroke-width: 0.48"/>
    </g>
    <g clip-path="url(#pb078e7f9b9)">
     <use xlink:href="#C0_0_d6e4bea80f" x="126.444222" y="106.674081" style="fill: #1f77b4; stroke: #ffffff; stroke-width: 0.48"/>
    </g>
    <g clip-path="url(#pb078e7f9b9)">
     <use xlink:href="#C0_0_d6e4bea80f" x="135.198228" y="76.451868" style="fill: #ff7f0e; stroke: #ffffff; stroke-width: 0.48"/>
    </g>
    <g clip-path="url(#pb078e7f9b9)">
     <use xlink:href="#C0_0_d6e4bea80f" x="118.64051" y="88.348225" style="fill: #1f77b4; stroke: #ffffff; stroke-width: 0.48"/>
    </g>
    <g clip-path="url(#pb078e7f9b9)">
     <use xlink:href="#C0_0_d6e4bea80f" x="86.392345" y="60.933445" style="fill: #1f77b4; stroke: #ffffff; stroke-width: 0.48"/>
    </g>
    <g clip-path="url(#pb078e7f9b9)">
     <use xlink:href="#C0_0_d6e4bea80f" x="109.999375" y="70.279075" style="fill: #1f77b4; stroke: #ffffff; stroke-width: 0.48"/>
    </g>
    <g clip-path="url(#pb078e7f9b9)">
     <use xlink:href="#C0_0_d6e4bea80f" x="89.485384" y="70.212328" style="fill: #1f77b4; stroke: #ffffff; stroke-width: 0.48"/>
    </g>
    <g clip-path="url(#pb078e7f9b9)">
     <use xlink:href="#C0_0_d6e4bea80f" x="129.409179" y="90.513695" style="fill: #ff7f0e; stroke: #ffffff; stroke-width: 0.48"/>
    </g>
    <g clip-path="url(#pb078e7f9b9)">
     <use xlink:href="#C0_0_d6e4bea80f" x="66.988141" y="97.921578" style="fill: #ff7f0e; stroke: #ffffff; stroke-width: 0.48"/>
    </g>
    <g clip-path="url(#pb078e7f9b9)">
     <use xlink:href="#C0_0_d6e4bea80f" x="81.062877" y="90.989349" style="fill: #2ca02c; stroke: #ffffff; stroke-width: 0.48"/>
    </g>
    <g clip-path="url(#pb078e7f9b9)">
     <use xlink:href="#C0_0_d6e4bea80f" x="85.871484" y="72.968137" style="fill: #2ca02c; stroke: #ffffff; stroke-width: 0.48"/>
    </g>
    <g clip-path="url(#pb078e7f9b9)">
     <use xlink:href="#C0_0_d6e4bea80f" x="156.221918" y="86.825314" style="fill: #ff7f0e; stroke: #ffffff; stroke-width: 0.48"/>
    </g>
    <g clip-path="url(#pb078e7f9b9)">
     <use xlink:href="#C0_0_d6e4bea80f" x="142.780658" y="69.631518" style="fill: #ff7f0e; stroke: #ffffff; stroke-width: 0.48"/>
    </g>
    <g clip-path="url(#pb078e7f9b9)">
     <use xlink:href="#C0_0_d6e4bea80f" x="146.238661" y="99.537923" style="fill: #1f77b4; stroke: #ffffff; stroke-width: 0.48"/>
    </g>
    <g clip-path="url(#pb078e7f9b9)">
     <use xlink:href="#C0_0_d6e4bea80f" x="127.976958" y="84.018895" style="fill: #1f77b4; stroke: #ffffff; stroke-width: 0.48"/>
    </g>
    <g clip-path="url(#pb078e7f9b9)">
     <use xlink:href="#C0_0_d6e4bea80f" x="104.788289" y="27.358125" style="fill: #2ca02c; stroke: #ffffff; stroke-width: 0.48"/>
    </g>
    <g clip-path="url(#pb078e7f9b9)">
     <use xlink:href="#C0_0_d6e4bea80f" x="145.221338" y="71.712302" style="fill: #1f77b4; stroke: #ffffff; stroke-width: 0.48"/>
    </g>
    <g clip-path="url(#pb078e7f9b9)">
     <use xlink:href="#C0_0_d6e4bea80f" x="159.435534" y="36.712885" style="fill: #1f77b4; stroke: #ffffff; stroke-width: 0.48"/>
    </g>
    <g clip-path="url(#pb078e7f9b9)">
     <use xlink:href="#C0_0_d6e4bea80f" x="114.836363" y="84.261401" style="fill: #ff7f0e; stroke: #ffffff; stroke-width: 0.48"/>
    </g>
    <g clip-path="url(#pb078e7f9b9)">
     <use xlink:href="#C0_0_d6e4bea80f" x="137.403666" y="102.993195" style="fill: #2ca02c; stroke: #ffffff; stroke-width: 0.48"/>
    </g>
    <g clip-path="url(#pb078e7f9b9)">
     <use xlink:href="#C0_0_d6e4bea80f" x="119.747884" y="79.369415" style="fill: #2ca02c; stroke: #ffffff; stroke-width: 0.48"/>
    </g>
    <g clip-path="url(#pb078e7f9b9)">
     <use xlink:href="#C0_0_d6e4bea80f" x="170.753754" y="59.120189" style="fill: #1f77b4; stroke: #ffffff; stroke-width: 0.48"/>
    </g>
    <g clip-path="url(#pb078e7f9b9)">
     <use xlink:href="#C0_0_d6e4bea80f" x="141.365652" y="84.252378" style="fill: #2ca02c; stroke: #ffffff; stroke-width: 0.48"/>
    </g>
    <g clip-path="url(#pb078e7f9b9)">
     <use xlink:href="#C0_0_d6e4bea80f" x="67.425509" y="125.268353" style="fill: #1f77b4; stroke: #ffffff; stroke-width: 0.48"/>
    </g>
    <g clip-path="url(#pb078e7f9b9)">
     <use xlink:href="#C0_0_d6e4bea80f" x="104.370958" y="91.805724" style="fill: #2ca02c; stroke: #ffffff; stroke-width: 0.48"/>
    </g>
    <g clip-path="url(#pb078e7f9b9)">
     <use xlink:href="#C0_0_d6e4bea80f" x="104.07234" y="87.619593" style="fill: #ff7f0e; stroke: #ffffff; stroke-width: 0.48"/>
    </g>
    <g clip-path="url(#pb078e7f9b9)">
     <use xlink:href="#C0_0_d6e4bea80f" x="127.944104" y="82.429326" style="fill: #ff7f0e; stroke: #ffffff; stroke-width: 0.48"/>
    </g>
    <g clip-path="url(#pb078e7f9b9)">
     <use xlink:href="#C0_0_d6e4bea80f" x="87.987702" y="71.388777" style="fill: #ff7f0e; stroke: #ffffff; stroke-width: 0.48"/>
    </g>
    <g clip-path="url(#pb078e7f9b9)">
     <use xlink:href="#C0_0_d6e4bea80f" x="120.098298" y="78.117068" style="fill: #2ca02c; stroke: #ffffff; stroke-width: 0.48"/>
    </g>
    <g clip-path="url(#pb078e7f9b9)">
     <use xlink:href="#C0_0_d6e4bea80f" x="141.878968" y="86.292423" style="fill: #ff7f0e; stroke: #ffffff; stroke-width: 0.48"/>
    </g>
    <g clip-path="url(#pb078e7f9b9)">
     <use xlink:href="#C0_0_d6e4bea80f" x="130.119409" y="128.158125" style="fill: #2ca02c; stroke: #ffffff; stroke-width: 0.48"/>
    </g>
    <g clip-path="url(#pb078e7f9b9)">
     <use xlink:href="#C0_0_d6e4bea80f" x="96.912505" y="92.653223" style="fill: #1f77b4; stroke: #ffffff; stroke-width: 0.48"/>
    </g>
    <g clip-path="url(#pb078e7f9b9)">
     <use xlink:href="#C0_0_d6e4bea80f" x="134.505989" y="59.855077" style="fill: #ff7f0e; stroke: #ffffff; stroke-width: 0.48"/>
    </g>
    <g clip-path="url(#pb078e7f9b9)">
     <use xlink:href="#C0_0_d6e4bea80f" x="149.046208" y="101.081648" style="fill: #2ca02c; stroke: #ffffff; stroke-width: 0.48"/>
    </g>
    <g clip-path="url(#pb078e7f9b9)">
     <use xlink:href="#C0_0_d6e4bea80f" x="127.935302" y="98.691749" style="fill: #ff7f0e; stroke: #ffffff; stroke-width: 0.48"/>
    </g>
    <g clip-path="url(#pb078e7f9b9)">
     <use xlink:href="#C0_0_d6e4bea80f" x="154.487665" y="58.284665" style="fill: #2ca02c; stroke: #ffffff; stroke-width: 0.48"/>
    </g>
    <g clip-path="url(#pb078e7f9b9)">
     <use xlink:href="#C0_0_d6e4bea80f" x="189.87408" y="86.868358" style="fill: #1f77b4; stroke: #ffffff; stroke-width: 0.48"/>
    </g>
    <g clip-path="url(#pb078e7f9b9)">
     <use xlink:href="#C0_0_d6e4bea80f" x="142.054238" y="106.277436" style="fill: #1f77b4; stroke: #ffffff; stroke-width: 0.48"/>
    </g>
    <g clip-path="url(#pb078e7f9b9)">
     <use xlink:href="#C0_0_d6e4bea80f" x="130.694565" y="63.185393" style="fill: #2ca02c; stroke: #ffffff; stroke-width: 0.48"/>
    </g>
    <g clip-path="url(#pb078e7f9b9)">
     <use xlink:href="#C0_0_d6e4bea80f" x="140.003922" y="38.640758" style="fill: #2ca02c; stroke: #ffffff; stroke-width: 0.48"/>
    </g>
    <g clip-path="url(#pb078e7f9b9)">
     <use xlink:href="#C0_0_d6e4bea80f" x="130.787989" y="60.433128" style="fill: #1f77b4; stroke: #ffffff; stroke-width: 0.48"/>
    </g>
    <g clip-path="url(#pb078e7f9b9)">
     <use xlink:href="#C0_0_d6e4bea80f" x="110.493406" y="79.417691" style="fill: #1f77b4; stroke: #ffffff; stroke-width: 0.48"/>
    </g>
    <g clip-path="url(#pb078e7f9b9)">
     <use xlink:href="#C0_0_d6e4bea80f" x="143.020433" y="122.988121" style="fill: #ff7f0e; stroke: #ffffff; stroke-width: 0.48"/>
    </g>
    <g clip-path="url(#pb078e7f9b9)">
     <use xlink:href="#C0_0_d6e4bea80f" x="153.209547" y="97.898321" style="fill: #ff7f0e; stroke: #ffffff; stroke-width: 0.48"/>
    </g>
    <g clip-path="url(#pb078e7f9b9)">
     <use xlink:href="#C0_0_d6e4bea80f" x="173.54084" y="69.471478" style="fill: #1f77b4; stroke: #ffffff; stroke-width: 0.48"/>
    </g>
    <g clip-path="url(#pb078e7f9b9)">
     <use xlink:href="#C0_0_d6e4bea80f" x="91.326932" y="46.169287" style="fill: #ff7f0e; stroke: #ffffff; stroke-width: 0.48"/>
    </g>
    <g clip-path="url(#pb078e7f9b9)">
     <use xlink:href="#C0_0_d6e4bea80f" x="93.420583" y="89.610782" style="fill: #2ca02c; stroke: #ffffff; stroke-width: 0.48"/>
    </g>
    <g clip-path="url(#pb078e7f9b9)">
     <use xlink:href="#C0_0_d6e4bea80f" x="133.829242" y="73.432812" style="fill: #2ca02c; stroke: #ffffff; stroke-width: 0.48"/>
    </g>
    <g clip-path="url(#pb078e7f9b9)">
     <use xlink:href="#C0_0_d6e4bea80f" x="188.806095" y="79.100539" style="fill: #1f77b4; stroke: #ffffff; stroke-width: 0.48"/>
    </g>
    <g clip-path="url(#pb078e7f9b9)">
     <use xlink:href="#C0_0_d6e4bea80f" x="125.613804" y="29.200999" style="fill: #2ca02c; stroke: #ffffff; stroke-width: 0.48"/>
    </g>
    <g clip-path="url(#pb078e7f9b9)">
     <use xlink:href="#C0_0_d6e4bea80f" x="202.411222" y="64.92181" style="fill: #2ca02c; stroke: #ffffff; stroke-width: 0.48"/>
    </g>
    <g clip-path="url(#pb078e7f9b9)">
     <use xlink:href="#C0_0_d6e4bea80f" x="106.278635" y="75.861215" style="fill: #1f77b4; stroke: #ffffff; stroke-width: 0.48"/>
    </g>
    <g clip-path="url(#pb078e7f9b9)">
     <use xlink:href="#C0_0_d6e4bea80f" x="118.822228" y="79.14199" style="fill: #ff7f0e; stroke: #ffffff; stroke-width: 0.48"/>
    </g>
    <g clip-path="url(#pb078e7f9b9)">
     <use xlink:href="#C0_0_d6e4bea80f" x="151.692208" y="81.729521" style="fill: #ff7f0e; stroke: #ffffff; stroke-width: 0.48"/>
    </g>
    <g clip-path="url(#pb078e7f9b9)">
     <use xlink:href="#C0_0_d6e4bea80f" x="95.362263" y="81.336914" style="fill: #ff7f0e; stroke: #ffffff; stroke-width: 0.48"/>
    </g>
    <g clip-path="url(#pb078e7f9b9)">
     <use xlink:href="#C0_0_d6e4bea80f" x="146.32614" y="55.063877" style="fill: #1f77b4; stroke: #ffffff; stroke-width: 0.48"/>
    </g>
    <g clip-path="url(#pb078e7f9b9)">
     <use xlink:href="#C0_0_d6e4bea80f" x="132.250604" y="92.400177" style="fill: #2ca02c; stroke: #ffffff; stroke-width: 0.48"/>
    </g>
    <g clip-path="url(#pb078e7f9b9)">
     <use xlink:href="#C0_0_d6e4bea80f" x="166.984401" y="53.874649" style="fill: #2ca02c; stroke: #ffffff; stroke-width: 0.48"/>
    </g>
    <g clip-path="url(#pb078e7f9b9)">
     <use xlink:href="#C0_0_d6e4bea80f" x="140.252548" y="56.382628" style="fill: #ff7f0e; stroke: #ffffff; stroke-width: 0.48"/>
    </g>
    <g clip-path="url(#pb078e7f9b9)">
     <use xlink:href="#C0_0_d6e4bea80f" x="143.073906" y="68.715961" style="fill: #1f77b4; stroke: #ffffff; stroke-width: 0.48"/>
    </g>
    <g clip-path="url(#pb078e7f9b9)">
     <use xlink:href="#C0_0_d6e4bea80f" x="142.079809" y="98.333788" style="fill: #2ca02c; stroke: #ffffff; stroke-width: 0.48"/>
    </g>
    <g clip-path="url(#pb078e7f9b9)">
     <use xlink:href="#C0_0_d6e4bea80f" x="87.303397" y="57.408284" style="fill: #ff7f0e; stroke: #ffffff; stroke-width: 0.48"/>
    </g>
    <g clip-path="url(#pb078e7f9b9)">
     <use xlink:href="#C0_0_d6e4bea80f" x="113.801551" y="103.428876" style="fill: #1f77b4; stroke: #ffffff; stroke-width: 0.48"/>
    </g>
    <g clip-path="url(#pb078e7f9b9)">
     <use xlink:href="#C0_0_d6e4bea80f" x="118.497503" y="79.954684" style="fill: #2ca02c; stroke: #ffffff; stroke-width: 0.48"/>
    </g>
    <g clip-path="url(#pb078e7f9b9)">
     <use xlink:href="#C0_0_d6e4bea80f" x="100.078388" y="71.172277" style="fill: #2ca02c; stroke: #ffffff; stroke-width: 0.48"/>
    </g>
    <g clip-path="url(#pb078e7f9b9)">
     <use xlink:href="#C0_0_d6e4bea80f" x="136.572934" y="65.416418" style="fill: #2ca02c; stroke: #ffffff; stroke-width: 0.48"/>
    </g>
    <g clip-path="url(#pb078e7f9b9)">
     <use xlink:href="#C0_0_d6e4bea80f" x="99.155344" y="67.748379" style="fill: #2ca02c; stroke: #ffffff; stroke-width: 0.48"/>
    </g>
    <g clip-path="url(#pb078e7f9b9)">
     <use xlink:href="#C0_0_d6e4bea80f" x="134.816413" y="96.954083" style="fill: #2ca02c; stroke: #ffffff; stroke-width: 0.48"/>
    </g>
    <g clip-path="url(#pb078e7f9b9)">
     <use xlink:href="#C0_0_d6e4bea80f" x="122.275091" y="91.497545" style="fill: #ff7f0e; stroke: #ffffff; stroke-width: 0.48"/>
    </g>
    <g clip-path="url(#pb078e7f9b9)">
     <use xlink:href="#C0_0_d6e4bea80f" x="108.864103" y="88.350799" style="fill: #ff7f0e; stroke: #ffffff; stroke-width: 0.48"/>
    </g>
    <g clip-path="url(#pb078e7f9b9)">
     <use xlink:href="#C0_0_d6e4bea80f" x="117.41955" y="56.406973" style="fill: #1f77b4; stroke: #ffffff; stroke-width: 0.48"/>
    </g>
    <g clip-path="url(#pb078e7f9b9)">
     <use xlink:href="#C0_0_d6e4bea80f" x="82.668382" y="69.391799" style="fill: #ff7f0e; stroke: #ffffff; stroke-width: 0.48"/>
    </g>
    <g clip-path="url(#pb078e7f9b9)">
     <use xlink:href="#C0_0_d6e4bea80f" x="152.129185" y="71.747814" style="fill: #2ca02c; stroke: #ffffff; stroke-width: 0.48"/>
    </g>
    <g clip-path="url(#pb078e7f9b9)">
     <use xlink:href="#C0_0_d6e4bea80f" x="136.71833" y="91.54338" style="fill: #2ca02c; stroke: #ffffff; stroke-width: 0.48"/>
    </g>
    <g clip-path="url(#pb078e7f9b9)">
     <use xlink:href="#C0_0_d6e4bea80f" x="121.621674" y="44.884522" style="fill: #ff7f0e; stroke: #ffffff; stroke-width: 0.48"/>
    </g>
    <g clip-path="url(#pb078e7f9b9)">
     <use xlink:href="#C0_0_d6e4bea80f" x="155.90375" y="73.278629" style="fill: #2ca02c; stroke: #ffffff; stroke-width: 0.48"/>
    </g>
    <g clip-path="url(#pb078e7f9b9)">
     <use xlink:href="#C0_0_d6e4bea80f" x="87.207628" y="106.88036" style="fill: #1f77b4; stroke: #ffffff; stroke-width: 0.48"/>
    </g>
    <g clip-path="url(#pb078e7f9b9)">
     <use xlink:href="#C0_0_d6e4bea80f" x="130.740124" y="67.885611" style="fill: #1f77b4; stroke: #ffffff; stroke-width: 0.48"/>
    </g>
    <g clip-path="url(#pb078e7f9b9)">
     <use xlink:href="#C0_0_d6e4bea80f" x="50.229403" y="85.480985" style="fill: #2ca02c; stroke: #ffffff; stroke-width: 0.48"/>
    </g>
    <g clip-path="url(#pb078e7f9b9)">
     <use xlink:href="#C0_0_d6e4bea80f" x="103.115229" y="62.005674" style="fill: #2ca02c; stroke: #ffffff; stroke-width: 0.48"/>
    </g>
    <g clip-path="url(#pb078e7f9b9)">
     <use xlink:href="#C0_0_d6e4bea80f" x="144.933362" y="73.995926" style="fill: #2ca02c; stroke: #ffffff; stroke-width: 0.48"/>
    </g>
    <g clip-path="url(#pb078e7f9b9)">
     <use xlink:href="#C0_0_d6e4bea80f" x="202.00692" y="72.048911" style="fill: #ff7f0e; stroke: #ffffff; stroke-width: 0.48"/>
    </g>
    <g clip-path="url(#pb078e7f9b9)">
     <use xlink:href="#C0_0_d6e4bea80f" x="109.370981" y="92.433073" style="fill: #2ca02c; stroke: #ffffff; stroke-width: 0.48"/>
    </g>
    <g clip-path="url(#pb078e7f9b9)">
     <use xlink:href="#C0_0_d6e4bea80f" x="80.444268" y="50.220574" style="fill: #2ca02c; stroke: #ffffff; stroke-width: 0.48"/>
    </g>
    <g clip-path="url(#pb078e7f9b9)">
     <use xlink:href="#C0_0_d6e4bea80f" x="155.114872" y="91.835607" style="fill: #2ca02c; stroke: #ffffff; stroke-width: 0.48"/>
    </g>
    <g clip-path="url(#pb078e7f9b9)">
     <use xlink:href="#C0_0_d6e4bea80f" x="127.87287" y="75.237013" style="fill: #2ca02c; stroke: #ffffff; stroke-width: 0.48"/>
    </g>
    <g clip-path="url(#pb078e7f9b9)">
     <use xlink:href="#C0_0_d6e4bea80f" x="92.866527" y="91.259845" style="fill: #ff7f0e; stroke: #ffffff; stroke-width: 0.48"/>
    </g>
    <g clip-path="url(#pb078e7f9b9)">
     <use xlink:href="#C0_0_d6e4bea80f" x="130.356555" y="83.589618" style="fill: #2ca02c; stroke: #ffffff; stroke-width: 0.48"/>
    </g>
    <g clip-path="url(#pb078e7f9b9)">
     <use xlink:href="#C0_0_d6e4bea80f" x="136.995174" y="90.80807" style="fill: #2ca02c; stroke: #ffffff; stroke-width: 0.48"/>
    </g>
    <g clip-path="url(#pb078e7f9b9)">
     <use xlink:href="#C0_0_d6e4bea80f" x="79.515465" y="97.209396" style="fill: #ff7f0e; stroke: #ffffff; stroke-width: 0.48"/>
    </g>
    <g clip-path="url(#pb078e7f9b9)">
     <use xlink:href="#C0_0_d6e4bea80f" x="134.278905" y="99.533469" style="fill: #1f77b4; stroke: #ffffff; stroke-width: 0.48"/>
    </g>
    <g clip-path="url(#pb078e7f9b9)">
     <use xlink:href="#C0_0_d6e4bea80f" x="149.519381" y="61.158945" style="fill: #1f77b4; stroke: #ffffff; stroke-width: 0.48"/>
    </g>
    <g clip-path="url(#pb078e7f9b9)">
     <use xlink:href="#C0_0_d6e4bea80f" x="109.260618" y="68.284392" style="fill: #1f77b4; stroke: #ffffff; stroke-width: 0.48"/>
    </g>
    <g clip-path="url(#pb078e7f9b9)">
     <use xlink:href="#C0_0_d6e4bea80f" x="148.237098" y="64.226376" style="fill: #1f77b4; stroke: #ffffff; stroke-width: 0.48"/>
    </g>
    <g clip-path="url(#pb078e7f9b9)">
     <use xlink:href="#C0_0_d6e4bea80f" x="156.034454" y="61.665592" style="fill: #ff7f0e; stroke: #ffffff; stroke-width: 0.48"/>
    </g>
    <g clip-path="url(#pb078e7f9b9)">
     <use xlink:href="#C0_0_d6e4bea80f" x="105.179796" y="95.305281" style="fill: #ff7f0e; stroke: #ffffff; stroke-width: 0.48"/>
    </g>
   </g>
   <g id="matplotlib.axis_1">
    <g id="xtick_1">
     <g id="line2d_1">
      <defs>
       <path id="m6230db9575" d="M 0 0 
L 0 3.5 
" style="stroke: #000000; stroke-width: 0.8"/>
      </defs>
      <g>
       <use xlink:href="#m6230db9575" x="65.617704" y="133.198125" style="stroke: #000000; stroke-width: 0.8"/>
      </g>
     </g>
     <g id="text_1">
      <!-- −2 -->
      <g transform="translate(58.24661 147.796563) scale(0.1 -0.1)">
       <defs>
        <path id="DejaVuSans-2212" d="M 678 2272 
L 4684 2272 
L 4684 1741 
L 678 1741 
L 678 2272 
z
" transform="scale(0.015625)"/>
        <path id="DejaVuSans-32" d="M 1228 531 
L 3431 531 
L 3431 0 
L 469 0 
L 469 531 
Q 828 903 1448 1529 
Q 2069 2156 2228 2338 
Q 2531 2678 2651 2914 
Q 2772 3150 2772 3378 
Q 2772 3750 2511 3984 
Q 2250 4219 1831 4219 
Q 1534 4219 1204 4116 
Q 875 4013 500 3803 
L 500 4441 
Q 881 4594 1212 4672 
Q 1544 4750 1819 4750 
Q 2544 4750 2975 4387 
Q 3406 4025 3406 3419 
Q 3406 3131 3298 2873 
Q 3191 2616 2906 2266 
Q 2828 2175 2409 1742 
Q 1991 1309 1228 531 
z
" transform="scale(0.015625)"/>
       </defs>
       <use xlink:href="#DejaVuSans-2212"/>
       <use xlink:href="#DejaVuSans-32" transform="translate(83.789062 0)"/>
      </g>
     </g>
    </g>
    <g id="xtick_2">
     <g id="line2d_2">
      <g>
       <use xlink:href="#m6230db9575" x="126.301202" y="133.198125" style="stroke: #000000; stroke-width: 0.8"/>
      </g>
     </g>
     <g id="text_2">
      <!-- 0 -->
      <g transform="translate(123.119952 147.796563) scale(0.1 -0.1)">
       <defs>
        <path id="DejaVuSans-30" d="M 2034 4250 
Q 1547 4250 1301 3770 
Q 1056 3291 1056 2328 
Q 1056 1369 1301 889 
Q 1547 409 2034 409 
Q 2525 409 2770 889 
Q 3016 1369 3016 2328 
Q 3016 3291 2770 3770 
Q 2525 4250 2034 4250 
z
M 2034 4750 
Q 2819 4750 3233 4129 
Q 3647 3509 3647 2328 
Q 3647 1150 3233 529 
Q 2819 -91 2034 -91 
Q 1250 -91 836 529 
Q 422 1150 422 2328 
Q 422 3509 836 4129 
Q 1250 4750 2034 4750 
z
" transform="scale(0.015625)"/>
       </defs>
       <use xlink:href="#DejaVuSans-30"/>
      </g>
     </g>
    </g>
    <g id="xtick_3">
     <g id="line2d_3">
      <g>
       <use xlink:href="#m6230db9575" x="186.9847" y="133.198125" style="stroke: #000000; stroke-width: 0.8"/>
      </g>
     </g>
     <g id="text_3">
      <!-- 2 -->
      <g transform="translate(183.80345 147.796563) scale(0.1 -0.1)">
       <use xlink:href="#DejaVuSans-32"/>
      </g>
     </g>
    </g>
    <g id="text_4">
     <!-- x -->
     <g transform="translate(123.360938 161.474688) scale(0.1 -0.1)">
      <defs>
       <path id="DejaVuSans-78" d="M 3513 3500 
L 2247 1797 
L 3578 0 
L 2900 0 
L 1881 1375 
L 863 0 
L 184 0 
L 1544 1831 
L 300 3500 
L 978 3500 
L 1906 2253 
L 2834 3500 
L 3513 3500 
z
" transform="scale(0.015625)"/>
      </defs>
      <use xlink:href="#DejaVuSans-78"/>
     </g>
    </g>
   </g>
   <g id="matplotlib.axis_2">
    <g id="ytick_1">
     <g id="line2d_4">
      <defs>
       <path id="m052cf30b4e" d="M 0 0 
L -3.5 0 
" style="stroke: #000000; stroke-width: 0.8"/>
      </defs>
      <g>
       <use xlink:href="#m052cf30b4e" x="42.620312" y="121.945492" style="stroke: #000000; stroke-width: 0.8"/>
      </g>
     </g>
     <g id="text_5">
      <!-- −2 -->
      <g transform="translate(20.878125 125.744711) scale(0.1 -0.1)">
       <use xlink:href="#DejaVuSans-2212"/>
       <use xlink:href="#DejaVuSans-32" transform="translate(83.789062 0)"/>
      </g>
     </g>
    </g>
    <g id="ytick_2">
     <g id="line2d_5">
      <g>
       <use xlink:href="#m052cf30b4e" x="42.620312" y="79.990865" style="stroke: #000000; stroke-width: 0.8"/>
      </g>
     </g>
     <g id="text_6">
      <!-- 0 -->
      <g transform="translate(29.257812 83.790083) scale(0.1 -0.1)">
       <use xlink:href="#DejaVuSans-30"/>
      </g>
     </g>
    </g>
    <g id="ytick_3">
     <g id="line2d_6">
      <g>
       <use xlink:href="#m052cf30b4e" x="42.620312" y="38.036237" style="stroke: #000000; stroke-width: 0.8"/>
      </g>
     </g>
     <g id="text_7">
      <!-- 2 -->
      <g transform="translate(29.257812 41.835456) scale(0.1 -0.1)">
       <use xlink:href="#DejaVuSans-32"/>
      </g>
     </g>
    </g>
    <g id="text_8">
     <!-- y -->
     <g transform="translate(14.798437 80.7175) rotate(-90) scale(0.1 -0.1)">
      <defs>
       <path id="DejaVuSans-79" d="M 2059 -325 
Q 1816 -950 1584 -1140 
Q 1353 -1331 966 -1331 
L 506 -1331 
L 506 -850 
L 844 -850 
Q 1081 -850 1212 -737 
Q 1344 -625 1503 -206 
L 1606 56 
L 191 3500 
L 800 3500 
L 1894 763 
L 2988 3500 
L 3597 3500 
L 2059 -325 
z
" transform="scale(0.015625)"/>
      </defs>
      <use xlink:href="#DejaVuSans-79"/>
     </g>
    </g>
   </g>
   <g id="line2d_7"/>
   <g id="line2d_8"/>
   <g id="line2d_9"/>
   <g id="patch_3">
    <path d="M 42.620312 133.198125 
L 42.620312 22.318125 
" style="fill: none; stroke: #000000; stroke-width: 0.8; stroke-linejoin: miter; stroke-linecap: square"/>
   </g>
   <g id="patch_4">
    <path d="M 210.020313 133.198125 
L 210.020313 22.318125 
" style="fill: none; stroke: #000000; stroke-width: 0.8; stroke-linejoin: miter; stroke-linecap: square"/>
   </g>
   <g id="patch_5">
    <path d="M 42.620312 133.198125 
L 210.020313 133.198125 
" style="fill: none; stroke: #000000; stroke-width: 0.8; stroke-linejoin: miter; stroke-linecap: square"/>
   </g>
   <g id="patch_6">
    <path d="M 42.620312 22.318125 
L 210.020313 22.318125 
" style="fill: none; stroke: #000000; stroke-width: 0.8; stroke-linejoin: miter; stroke-linecap: square"/>
   </g>
   <g id="text_9">
    <!-- Scatter Plot by Group -->
    <g transform="translate(62.02 16.318125) scale(0.12 -0.12)">
     <defs>
      <path id="DejaVuSans-53" d="M 3425 4513 
L 3425 3897 
Q 3066 4069 2747 4153 
Q 2428 4238 2131 4238 
Q 1616 4238 1336 4038 
Q 1056 3838 1056 3469 
Q 1056 3159 1242 3001 
Q 1428 2844 1947 2747 
L 2328 2669 
Q 3034 2534 3370 2195 
Q 3706 1856 3706 1288 
Q 3706 609 3251 259 
Q 2797 -91 1919 -91 
Q 1588 -91 1214 -16 
Q 841 59 441 206 
L 441 856 
Q 825 641 1194 531 
Q 1563 422 1919 422 
Q 2459 422 2753 634 
Q 3047 847 3047 1241 
Q 3047 1584 2836 1778 
Q 2625 1972 2144 2069 
L 1759 2144 
Q 1053 2284 737 2584 
Q 422 2884 422 3419 
Q 422 4038 858 4394 
Q 1294 4750 2059 4750 
Q 2388 4750 2728 4690 
Q 3069 4631 3425 4513 
z
" transform="scale(0.015625)"/>
      <path id="DejaVuSans-63" d="M 3122 3366 
L 3122 2828 
Q 2878 2963 2633 3030 
Q 2388 3097 2138 3097 
Q 1578 3097 1268 2742 
Q 959 2388 959 1747 
Q 959 1106 1268 751 
Q 1578 397 2138 397 
Q 2388 397 2633 464 
Q 2878 531 3122 666 
L 3122 134 
Q 2881 22 2623 -34 
Q 2366 -91 2075 -91 
Q 1284 -91 818 406 
Q 353 903 353 1747 
Q 353 2603 823 3093 
Q 1294 3584 2113 3584 
Q 2378 3584 2631 3529 
Q 2884 3475 3122 3366 
z
" transform="scale(0.015625)"/>
      <path id="DejaVuSans-61" d="M 2194 1759 
Q 1497 1759 1228 1600 
Q 959 1441 959 1056 
Q 959 750 1161 570 
Q 1363 391 1709 391 
Q 2188 391 2477 730 
Q 2766 1069 2766 1631 
L 2766 1759 
L 2194 1759 
z
M 3341 1997 
L 3341 0 
L 2766 0 
L 2766 531 
Q 2569 213 2275 61 
Q 1981 -91 1556 -91 
Q 1019 -91 701 211 
Q 384 513 384 1019 
Q 384 1609 779 1909 
Q 1175 2209 1959 2209 
L 2766 2209 
L 2766 2266 
Q 2766 2663 2505 2880 
Q 2244 3097 1772 3097 
Q 1472 3097 1187 3025 
Q 903 2953 641 2809 
L 641 3341 
Q 956 3463 1253 3523 
Q 1550 3584 1831 3584 
Q 2591 3584 2966 3190 
Q 3341 2797 3341 1997 
z
" transform="scale(0.015625)"/>
      <path id="DejaVuSans-74" d="M 1172 4494 
L 1172 3500 
L 2356 3500 
L 2356 3053 
L 1172 3053 
L 1172 1153 
Q 1172 725 1289 603 
Q 1406 481 1766 481 
L 2356 481 
L 2356 0 
L 1766 0 
Q 1100 0 847 248 
Q 594 497 594 1153 
L 594 3053 
L 172 3053 
L 172 3500 
L 594 3500 
L 594 4494 
L 1172 4494 
z
" transform="scale(0.015625)"/>
      <path id="DejaVuSans-65" d="M 3597 1894 
L 3597 1613 
L 953 1613 
Q 991 1019 1311 708 
Q 1631 397 2203 397 
Q 2534 397 2845 478 
Q 3156 559 3463 722 
L 3463 178 
Q 3153 47 2828 -22 
Q 2503 -91 2169 -91 
Q 1331 -91 842 396 
Q 353 884 353 1716 
Q 353 2575 817 3079 
Q 1281 3584 2069 3584 
Q 2775 3584 3186 3129 
Q 3597 2675 3597 1894 
z
M 3022 2063 
Q 3016 2534 2758 2815 
Q 2500 3097 2075 3097 
Q 1594 3097 1305 2825 
Q 1016 2553 972 2059 
L 3022 2063 
z
" transform="scale(0.015625)"/>
      <path id="DejaVuSans-72" d="M 2631 2963 
Q 2534 3019 2420 3045 
Q 2306 3072 2169 3072 
Q 1681 3072 1420 2755 
Q 1159 2438 1159 1844 
L 1159 0 
L 581 0 
L 581 3500 
L 1159 3500 
L 1159 2956 
Q 1341 3275 1631 3429 
Q 1922 3584 2338 3584 
Q 2397 3584 2469 3576 
Q 2541 3569 2628 3553 
L 2631 2963 
z
" transform="scale(0.015625)"/>
      <path id="DejaVuSans-20" transform="scale(0.015625)"/>
      <path id="DejaVuSans-50" d="M 1259 4147 
L 1259 2394 
L 2053 2394 
Q 2494 2394 2734 2622 
Q 2975 2850 2975 3272 
Q 2975 3691 2734 3919 
Q 2494 4147 2053 4147 
L 1259 4147 
z
M 628 4666 
L 2053 4666 
Q 2838 4666 3239 4311 
Q 3641 3956 3641 3272 
Q 3641 2581 3239 2228 
Q 2838 1875 2053 1875 
L 1259 1875 
L 1259 0 
L 628 0 
L 628 4666 
z
" transform="scale(0.015625)"/>
      <path id="DejaVuSans-6c" d="M 603 4863 
L 1178 4863 
L 1178 0 
L 603 0 
L 603 4863 
z
" transform="scale(0.015625)"/>
      <path id="DejaVuSans-6f" d="M 1959 3097 
Q 1497 3097 1228 2736 
Q 959 2375 959 1747 
Q 959 1119 1226 758 
Q 1494 397 1959 397 
Q 2419 397 2687 759 
Q 2956 1122 2956 1747 
Q 2956 2369 2687 2733 
Q 2419 3097 1959 3097 
z
M 1959 3584 
Q 2709 3584 3137 3096 
Q 3566 2609 3566 1747 
Q 3566 888 3137 398 
Q 2709 -91 1959 -91 
Q 1206 -91 779 398 
Q 353 888 353 1747 
Q 353 2609 779 3096 
Q 1206 3584 1959 3584 
z
" transform="scale(0.015625)"/>
      <path id="DejaVuSans-62" d="M 3116 1747 
Q 3116 2381 2855 2742 
Q 2594 3103 2138 3103 
Q 1681 3103 1420 2742 
Q 1159 2381 1159 1747 
Q 1159 1113 1420 752 
Q 1681 391 2138 391 
Q 2594 391 2855 752 
Q 3116 1113 3116 1747 
z
M 1159 2969 
Q 1341 3281 1617 3432 
Q 1894 3584 2278 3584 
Q 2916 3584 3314 3078 
Q 3713 2572 3713 1747 
Q 3713 922 3314 415 
Q 2916 -91 2278 -91 
Q 1894 -91 1617 61 
Q 1341 213 1159 525 
L 1159 0 
L 581 0 
L 581 4863 
L 1159 4863 
L 1159 2969 
z
" transform="scale(0.015625)"/>
      <path id="DejaVuSans-47" d="M 3809 666 
L 3809 1919 
L 2778 1919 
L 2778 2438 
L 4434 2438 
L 4434 434 
Q 4069 175 3628 42 
Q 3188 -91 2688 -91 
Q 1594 -91 976 548 
Q 359 1188 359 2328 
Q 359 3472 976 4111 
Q 1594 4750 2688 4750 
Q 3144 4750 3555 4637 
Q 3966 4525 4313 4306 
L 4313 3634 
Q 3963 3931 3569 4081 
Q 3175 4231 2741 4231 
Q 1884 4231 1454 3753 
Q 1025 3275 1025 2328 
Q 1025 1384 1454 906 
Q 1884 428 2741 428 
Q 3075 428 3337 486 
Q 3600 544 3809 666 
z
" transform="scale(0.015625)"/>
      <path id="DejaVuSans-75" d="M 544 1381 
L 544 3500 
L 1119 3500 
L 1119 1403 
Q 1119 906 1312 657 
Q 1506 409 1894 409 
Q 2359 409 2629 706 
Q 2900 1003 2900 1516 
L 2900 3500 
L 3475 3500 
L 3475 0 
L 2900 0 
L 2900 538 
Q 2691 219 2414 64 
Q 2138 -91 1772 -91 
Q 1169 -91 856 284 
Q 544 659 544 1381 
z
M 1991 3584 
L 1991 3584 
z
" transform="scale(0.015625)"/>
      <path id="DejaVuSans-70" d="M 1159 525 
L 1159 -1331 
L 581 -1331 
L 581 3500 
L 1159 3500 
L 1159 2969 
Q 1341 3281 1617 3432 
Q 1894 3584 2278 3584 
Q 2916 3584 3314 3078 
Q 3713 2572 3713 1747 
Q 3713 922 3314 415 
Q 2916 -91 2278 -91 
Q 1894 -91 1617 61 
Q 1341 213 1159 525 
z
M 3116 1747 
Q 3116 2381 2855 2742 
Q 2594 3103 2138 3103 
Q 1681 3103 1420 2742 
Q 1159 2381 1159 1747 
Q 1159 1113 1420 752 
Q 1681 391 2138 391 
Q 2594 391 2855 752 
Q 3116 1113 3116 1747 
z
" transform="scale(0.015625)"/>
     </defs>
     <use xlink:href="#DejaVuSans-53"/>
     <use xlink:href="#DejaVuSans-63" transform="translate(63.476562 0)"/>
     <use xlink:href="#DejaVuSans-61" transform="translate(118.457031 0)"/>
     <use xlink:href="#DejaVuSans-74" transform="translate(179.736328 0)"/>
     <use xlink:href="#DejaVuSans-74" transform="translate(218.945312 0)"/>
     <use xlink:href="#DejaVuSans-65" transform="translate(258.154297 0)"/>
     <use xlink:href="#DejaVuSans-72" transform="translate(319.677734 0)"/>
     <use xlink:href="#DejaVuSans-20" transform="translate(360.791016 0)"/>
     <use xlink:href="#DejaVuSans-50" transform="translate(392.578125 0)"/>
     <use xlink:href="#DejaVuSans-6c" transform="translate(452.880859 0)"/>
     <use xlink:href="#DejaVuSans-6f" transform="translate(480.664062 0)"/>
     <use xlink:href="#DejaVuSans-74" transform="translate(541.845703 0)"/>
     <use xlink:href="#DejaVuSans-20" transform="translate(581.054688 0)"/>
     <use xlink:href="#DejaVuSans-62" transform="translate(612.841797 0)"/>
     <use xlink:href="#DejaVuSans-79" transform="translate(676.318359 0)"/>
     <use xlink:href="#DejaVuSans-20" transform="translate(735.498047 0)"/>
     <use xlink:href="#DejaVuSans-47" transform="translate(767.285156 0)"/>
     <use xlink:href="#DejaVuSans-72" transform="translate(844.775391 0)"/>
     <use xlink:href="#DejaVuSans-6f" transform="translate(883.638672 0)"/>
     <use xlink:href="#DejaVuSans-75" transform="translate(944.820312 0)"/>
     <use xlink:href="#DejaVuSans-70" transform="translate(1008.199219 0)"/>
    </g>
   </g>
   <g id="legend_1">
    <g id="patch_7">
     <path d="M 164.0375 128.198125 
L 203.020313 128.198125 
Q 205.020313 128.198125 205.020313 126.198125 
L 205.020313 68.485625 
Q 205.020313 66.485625 203.020313 66.485625 
L 164.0375 66.485625 
Q 162.0375 66.485625 162.0375 68.485625 
L 162.0375 126.198125 
Q 162.0375 128.198125 164.0375 128.198125 
z
" style="fill: #ffffff; opacity: 0.8; stroke: #cccccc; stroke-linejoin: miter"/>
    </g>
    <g id="text_10">
     <!-- group -->
     <g transform="translate(169.009375 78.084063) scale(0.1 -0.1)">
      <defs>
       <path id="DejaVuSans-67" d="M 2906 1791 
Q 2906 2416 2648 2759 
Q 2391 3103 1925 3103 
Q 1463 3103 1205 2759 
Q 947 2416 947 1791 
Q 947 1169 1205 825 
Q 1463 481 1925 481 
Q 2391 481 2648 825 
Q 2906 1169 2906 1791 
z
M 3481 434 
Q 3481 -459 3084 -895 
Q 2688 -1331 1869 -1331 
Q 1566 -1331 1297 -1286 
Q 1028 -1241 775 -1147 
L 775 -588 
Q 1028 -725 1275 -790 
Q 1522 -856 1778 -856 
Q 2344 -856 2625 -561 
Q 2906 -266 2906 331 
L 2906 616 
Q 2728 306 2450 153 
Q 2172 0 1784 0 
Q 1141 0 747 490 
Q 353 981 353 1791 
Q 353 2603 747 3093 
Q 1141 3584 1784 3584 
Q 2172 3584 2450 3431 
Q 2728 3278 2906 2969 
L 2906 3500 
L 3481 3500 
L 3481 434 
z
" transform="scale(0.015625)"/>
      </defs>
      <use xlink:href="#DejaVuSans-67"/>
      <use xlink:href="#DejaVuSans-72" transform="translate(63.476562 0)"/>
      <use xlink:href="#DejaVuSans-6f" transform="translate(102.339844 0)"/>
      <use xlink:href="#DejaVuSans-75" transform="translate(163.521484 0)"/>
      <use xlink:href="#DejaVuSans-70" transform="translate(226.900391 0)"/>
     </g>
    </g>
    <g id="line2d_10">
     <defs>
      <path id="m3f11d15c19" d="M 0 3 
C 0.795609 3 1.55874 2.683901 2.12132 2.12132 
C 2.683901 1.55874 3 0.795609 3 0 
C 3 -0.795609 2.683901 -1.55874 2.12132 -2.12132 
C 1.55874 -2.683901 0.795609 -3 0 -3 
C -0.795609 -3 -1.55874 -2.683901 -2.12132 -2.12132 
C -2.683901 -1.55874 -3 -0.795609 -3 0 
C -3 0.795609 -2.683901 1.55874 -2.12132 2.12132 
C -1.55874 2.683901 -0.795609 3 0 3 
z
" style="stroke: #ffffff; stroke-width: 0.48"/>
     </defs>
     <g>
      <use xlink:href="#m3f11d15c19" x="176.0375" y="89.262188" style="fill: #1f77b4; stroke: #ffffff; stroke-width: 0.48"/>
     </g>
    </g>
    <g id="text_11">
     <!-- B -->
     <g transform="translate(194.0375 92.762188) scale(0.1 -0.1)">
      <defs>
       <path id="DejaVuSans-42" d="M 1259 2228 
L 1259 519 
L 2272 519 
Q 2781 519 3026 730 
Q 3272 941 3272 1375 
Q 3272 1813 3026 2020 
Q 2781 2228 2272 2228 
L 1259 2228 
z
M 1259 4147 
L 1259 2741 
L 2194 2741 
Q 2656 2741 2882 2914 
Q 3109 3088 3109 3444 
Q 3109 3797 2882 3972 
Q 2656 4147 2194 4147 
L 1259 4147 
z
M 628 4666 
L 2241 4666 
Q 2963 4666 3353 4366 
Q 3744 4066 3744 3513 
Q 3744 3084 3544 2831 
Q 3344 2578 2956 2516 
Q 3422 2416 3680 2098 
Q 3938 1781 3938 1306 
Q 3938 681 3513 340 
Q 3088 0 2303 0 
L 628 0 
L 628 4666 
z
" transform="scale(0.015625)"/>
      </defs>
      <use xlink:href="#DejaVuSans-42"/>
     </g>
    </g>
    <g id="line2d_11">
     <defs>
      <path id="mf35047f8ac" d="M 0 3 
C 0.795609 3 1.55874 2.683901 2.12132 2.12132 
C 2.683901 1.55874 3 0.795609 3 0 
C 3 -0.795609 2.683901 -1.55874 2.12132 -2.12132 
C 1.55874 -2.683901 0.795609 -3 0 -3 
C -0.795609 -3 -1.55874 -2.683901 -2.12132 -2.12132 
C -2.683901 -1.55874 -3 -0.795609 -3 0 
C -3 0.795609 -2.683901 1.55874 -2.12132 2.12132 
C -1.55874 2.683901 -0.795609 3 0 3 
z
" style="stroke: #ffffff; stroke-width: 0.48"/>
     </defs>
     <g>
      <use xlink:href="#mf35047f8ac" x="176.0375" y="103.940313" style="fill: #ff7f0e; stroke: #ffffff; stroke-width: 0.48"/>
     </g>
    </g>
    <g id="text_12">
     <!-- C -->
     <g transform="translate(194.0375 107.440313) scale(0.1 -0.1)">
      <defs>
       <path id="DejaVuSans-43" d="M 4122 4306 
L 4122 3641 
Q 3803 3938 3442 4084 
Q 3081 4231 2675 4231 
Q 1875 4231 1450 3742 
Q 1025 3253 1025 2328 
Q 1025 1406 1450 917 
Q 1875 428 2675 428 
Q 3081 428 3442 575 
Q 3803 722 4122 1019 
L 4122 359 
Q 3791 134 3420 21 
Q 3050 -91 2638 -91 
Q 1578 -91 968 557 
Q 359 1206 359 2328 
Q 359 3453 968 4101 
Q 1578 4750 2638 4750 
Q 3056 4750 3426 4639 
Q 3797 4528 4122 4306 
z
" transform="scale(0.015625)"/>
      </defs>
      <use xlink:href="#DejaVuSans-43"/>
     </g>
    </g>
    <g id="line2d_12">
     <defs>
      <path id="m89cfbb4697" d="M 0 3 
C 0.795609 3 1.55874 2.683901 2.12132 2.12132 
C 2.683901 1.55874 3 0.795609 3 0 
C 3 -0.795609 2.683901 -1.55874 2.12132 -2.12132 
C 1.55874 -2.683901 0.795609 -3 0 -3 
C -0.795609 -3 -1.55874 -2.683901 -2.12132 -2.12132 
C -2.683901 -1.55874 -3 -0.795609 -3 0 
C -3 0.795609 -2.683901 1.55874 -2.12132 2.12132 
C -1.55874 2.683901 -0.795609 3 0 3 
z
" style="stroke: #ffffff; stroke-width: 0.48"/>
     </defs>
     <g>
      <use xlink:href="#m89cfbb4697" x="176.0375" y="118.618438" style="fill: #2ca02c; stroke: #ffffff; stroke-width: 0.48"/>
     </g>
    </g>
    <g id="text_13">
     <!-- A -->
     <g transform="translate(194.0375 122.118438) scale(0.1 -0.1)">
      <defs>
       <path id="DejaVuSans-41" d="M 2188 4044 
L 1331 1722 
L 3047 1722 
L 2188 4044 
z
M 1831 4666 
L 2547 4666 
L 4325 0 
L 3669 0 
L 3244 1197 
L 1141 1197 
L 716 0 
L 50 0 
L 1831 4666 
z
" transform="scale(0.015625)"/>
      </defs>
      <use xlink:href="#DejaVuSans-41"/>
     </g>
    </g>
   </g>
  </g>
 </g>
 <defs>
  <clipPath id="pb078e7f9b9">
   <rect x="42.620312" y="22.318125" width="167.4" height="110.88"/>
  </clipPath>
 </defs>
</svg>
